<?xml version="1.0" standalone="no"?>
<!DOCTYPE svg PUBLIC "-//W3C//DTD SVG 20010904//EN"
 "http://www.w3.org/TR/2001/REC-SVG-20010904/DTD/svg10.dtd">
<svg version="1.0" xmlns="http://www.w3.org/2000/svg"
 width="512.000000pt" height="412.000000pt" viewBox="0 0 512.000000 412.000000"
 preserveAspectRatio="xMidYMid meet">

<g transform="translate(0.000000,412.000000) scale(0.100000,-0.100000)"
fill="#000000" stroke="none">
<path d="M220 2125 l0 -1755 2370 0 2370 0 0 1755 0 1755 -2370 0 -2370 0 0
-1755z m4640 0 l0 -1655 -2270 0 -2270 0 0 1655 0 1655 2270 0 2270 0 0 -1655z"/>
<path d="M1980 3100 c0 -67 4 -110 10 -110 6 0 19 -9 30 -20 19 -19 20 -33 20
-520 l0 -500 -30 0 -30 0 0 520 0 520 -480 0 c-522 0 -520 0 -571 -56 -14 -16
-139 -212 -277 -436 l-252 -407 0 -304 c0 -293 1 -305 21 -331 l20 -26 197 0
197 0 24 42 c135 236 453 312 685 164 58 -37 141 -125 164 -173 l16 -33 128 0
c121 0 128 -1 128 -20 0 -20 7 -20 729 -20 l729 0 26 54 c125 256 458 347 700
192 64 -41 126 -108 167 -181 l31 -56 42 25 c81 47 122 157 95 253 -16 59 -81
127 -135 142 -27 7 -401 11 -1181 11 l-1143 0 0 60 0 60 1338 2 1337 3 3 628
2 627 -1370 0 -1370 0 0 -110z m843 -163 c-1 -121 -10 -150 -33 -107 -7 13 -9
46 -4 93 l6 72 -41 -55 c-23 -30 -46 -55 -52 -54 -5 1 -13 2 -18 3 -5 0 -17
21 -28 46 -10 25 -21 45 -24 45 -10 0 -28 -96 -23 -117 7 -24 -13 -40 -29 -24
-11 11 -3 70 23 164 17 58 43 50 69 -23 12 -33 24 -60 25 -60 2 0 30 34 61 75
32 41 60 73 63 70 4 -3 5 -61 5 -128z m433 101 c-3 -13 -9 -53 -12 -90 -9 -85
1 -87 81 -17 74 65 99 64 103 -3 2 -35 7 -48 19 -48 25 0 70 38 77 65 4 14 13
25 21 25 18 0 17 3 5 -39 l-10 -35 34 33 c43 42 67 38 79 -12 6 -24 15 -37 25
-37 23 1 60 33 70 60 7 18 18 22 65 26 31 2 58 0 61 -5 3 -5 -13 -32 -36 -61
l-42 -53 52 5 c50 5 66 -2 40 -19 -15 -9 -148 -12 -148 -3 0 3 16 22 36 41 20
18 40 42 45 52 20 36 -30 17 -74 -28 -34 -34 -52 -45 -76 -45 -27 0 -31 4 -41
40 -6 22 -14 40 -19 40 -5 0 -21 -18 -36 -40 -30 -43 -55 -52 -55 -19 l0 20
-29 -20 c-33 -24 -61 -27 -79 -9 -9 9 -17 7 -35 -10 -29 -28 -64 -29 -72 -2
-5 16 -10 18 -25 10 -31 -16 -49 -11 -56 15 l-6 25 -40 -35 c-44 -41 -79 -43
-88 -8 -4 17 -9 20 -20 13 -26 -16 -58 -11 -65 10 -6 18 -9 17 -39 -15 -58
-61 -93 -40 -79 47 10 65 29 61 25 -4 -1 -27 1 -48 6 -48 13 0 58 51 78 90
l19 35 5 -45 c7 -63 28 -63 93 -1 55 52 74 60 95 39 9 -9 12 -7 12 13 0 40 12
69 27 69 11 0 14 -6 9 -22z m915 -86 c-14 -27 -14 -34 3 -58 14 -18 16 -18 54
19 24 24 42 35 46 28 8 -13 -83 -102 -130 -127 -46 -25 -56 -9 -16 24 28 24
31 29 20 45 -12 16 -15 16 -51 -10 -33 -23 -42 -25 -66 -17 -23 9 -32 8 -51
-8 -33 -26 -64 -20 -68 14 -7 55 52 123 100 116 20 -3 23 -9 23 -48 0 -33 4
-45 16 -48 18 -3 79 43 79 61 0 6 8 19 17 29 21 24 39 8 24 -20z m-2352 -118
c20 -26 21 -39 21 -295 0 -183 -4 -276 -12 -294 -7 -16 -24 -29 -47 -36 -24
-6 -205 -9 -522 -7 -462 3 -488 4 -508 22 -12 11 -21 27 -21 37 0 10 74 141
165 292 135 225 170 277 197 290 28 14 80 17 370 17 l337 0 20 -26z m851 -309
c0 -32 -41 -44 -191 -52 l-117 -6 -6 -51 c-3 -28 -1 -55 4 -60 6 -6 42 -5 97
2 48 7 97 13 108 14 15 2 21 -4 23 -24 2 -16 2 -28 0 -29 -2 -1 -57 -6 -122
-13 -133 -12 -122 -4 -140 -100 l-7 -39 103 6 c57 4 125 13 152 21 27 8 53 13
58 10 12 -8 10 -40 -4 -52 -13 -10 -260 -45 -328 -46 -32 -1 -35 1 -38 32 -2
18 4 66 12 106 8 41 18 115 22 165 5 62 12 95 22 103 10 9 54 14 126 14 61 1
125 7 141 12 17 6 42 11 58 11 22 1 27 -3 27 -24z m164 -25 c0 -19 -13 -104
-29 -188 -16 -90 -24 -157 -19 -162 5 -5 43 -1 89 11 88 21 170 25 180 9 13
-21 -16 -37 -75 -43 -32 -4 -98 -16 -145 -28 -68 -17 -88 -19 -100 -9 -20 17
-19 31 10 206 14 82 25 165 25 185 0 40 16 61 45 57 16 -2 20 -10 19 -38z
m405 27 c8 -10 4 -47 -15 -142 -29 -153 -40 -245 -28 -245 5 0 42 9 83 20 41
11 99 20 129 20 49 0 53 -2 50 -22 -3 -20 -12 -24 -88 -34 -47 -6 -111 -19
-142 -28 -61 -18 -92 -15 -102 10 -3 8 5 79 19 157 13 78 27 169 31 202 3 33
8 63 11 68 7 12 40 8 52 -6z m389 -29 c2 -20 -1 -46 -7 -56 -14 -26 -44 -261
-37 -288 8 -30 -30 -60 -52 -41 -19 16 -11 153 18 297 27 135 26 132 52 128
19 -2 24 -10 26 -40z m437 12 c91 -56 77 -199 -31 -319 -59 -66 -131 -101
-205 -101 -50 0 -60 3 -88 32 -17 17 -36 47 -42 66 -33 101 53 275 164 332 35
18 53 20 105 16 39 -3 77 -13 97 -26z m540 -5 c0 -18 -9 -21 -80 -26 -101 -8
-124 -15 -130 -42 -13 -60 -25 -228 -19 -274 5 -43 3 -54 -10 -59 -9 -3 -24 0
-33 7 -14 12 -15 31 -9 144 3 71 9 143 12 159 l7 29 -92 -7 c-79 -6 -92 -5
-97 9 -11 27 9 36 112 46 54 6 124 16 154 24 30 7 84 12 120 12 58 -2 65 -4
65 -22z m-4062 -736 c34 -18 37 -28 37 -119 0 -47 -4 -90 -8 -96 -15 -23 -50
-34 -75 -25 -61 24 -64 217 -3 241 28 11 24 12 49 -1z"/>
<path d="M3158 2943 c-19 -22 -38 -58 -38 -72 0 -18 18 -12 50 17 23 20 28 33
24 50 -8 27 -16 28 -36 5z"/>
<path d="M3350 2918 c-24 -39 -25 -58 -6 -58 19 0 56 47 56 71 0 30 -28 22
-50 -13z"/>
<path d="M3961 2924 c-25 -32 -28 -69 -5 -60 9 3 17 6 20 6 6 0 34 58 34 70 0
19 -29 10 -49 -16z"/>
<path d="M3857 2450 c-57 -52 -97 -127 -104 -195 -5 -50 -4 -56 25 -84 50 -50
121 -35 201 42 55 53 81 108 81 174 0 45 -4 54 -31 77 -24 20 -41 26 -80 26
-44 0 -54 -5 -92 -40z"/>
<path d="M1202 1624 c-64 -17 -150 -72 -185 -117 -149 -195 -87 -458 131 -560
57 -27 77 -31 147 -31 147 1 263 72 327 202 30 60 33 75 33 157 0 76 -4 98
-26 146 -51 107 -138 180 -248 205 -70 17 -112 17 -179 -2z m167 -110 c61 -18
123 -70 154 -128 16 -31 21 -59 21 -111 0 -83 -21 -132 -82 -187 -124 -112
-326 -69 -392 83 -62 145 12 306 158 345 63 17 79 17 141 -2z"/>
<path d="M3822 1624 c-65 -17 -151 -72 -187 -120 -54 -71 -78 -140 -78 -229 0
-71 4 -92 31 -149 107 -229 399 -285 578 -111 80 79 108 146 109 260 0 77 -4
98 -26 146 -51 107 -138 180 -248 205 -70 17 -112 17 -179 -2z m167 -110 c61
-18 123 -70 154 -128 16 -31 21 -59 21 -111 0 -78 -15 -118 -68 -173 -108
-116 -299 -99 -389 35 -93 139 -20 336 141 379 63 17 79 17 141 -2z"/>
</g>
</svg>
